<?xml version="1.0" standalone="no"?>
<!DOCTYPE svg PUBLIC "-//W3C//DTD SVG 20010904//EN"
 "http://www.w3.org/TR/2001/REC-SVG-20010904/DTD/svg10.dtd">
<svg version="1.0" xmlns="http://www.w3.org/2000/svg"
 width="312.000000pt" height="312.000000pt" viewBox="0 0 312.000000 312.000000"
 preserveAspectRatio="xMidYMid meet">
<metadata>
Created by potrace 1.11, written by Peter Selinger 2001-2013
</metadata>
<g transform="translate(0.000000,312.000000) scale(0.100000,-0.100000)"
fill="#000000" stroke="none">
<path d="M1162 2723 c0 -219 -1 -407 -1 -419 -1 -16 -8 -21 -33 -22 -101 -6
-258 -57 -312 -103 -54 -46 -78 -71 -110 -112 l-36 -49 0 116 0 116 -180 0
-180 0 0 -1125 0 -1125 188 2 187 3 0 453 c0 348 3 452 12 452 7 0 17 -9 23
-19 16 -30 122 -108 192 -141 109 -52 189 -64 413 -65 l199 0 3 34 c2 19 4 35
6 36 1 1 26 16 54 33 l53 32 44 -30 c150 -101 374 -130 587 -76 253 65 467
298 515 561 2 11 8 43 13 70 22 116 6 300 -39 440 -18 59 -87 184 -128 235
-34 41 -111 120 -117 120 -2 0 -26 16 -55 35 -29 19 -58 35 -66 35 -8 0 -14 5
-14 10 0 6 -8 10 -18 10 -10 0 -22 4 -27 9 -22 20 -164 45 -255 45 -161 0
-248 -22 -372 -93 l-67 -39 -47 32 -48 31 0 453 0 452 -192 0 -192 0 0 -397z
m-1 -807 c0 -11 1 -213 2 -449 2 -482 10 -439 -83 -433 -144 11 -291 108 -353
235 -21 43 -47 128 -47 156 0 11 -1 38 -2 60 -3 69 12 137 48 211 68 139 189
224 344 243 70 9 90 4 91 -23z m973 0 c103 -35 189 -114 241 -222 70 -143 64
-310 -16 -451 -55 -96 -175 -182 -283 -202 -47 -9 -165 -7 -201 2 -11 3 -24 6
-29 6 -5 1 -4 7 2 14 14 16 70 160 77 194 2 16 9 51 14 78 13 71 12 264 -3
327 -7 29 -13 55 -13 58 -5 32 -30 106 -49 149 -14 29 -24 55 -22 56 2 2 28 7
58 12 66 10 158 2 224 -21z m-569 -436 c-3 -115 -3 -116 -17 -102 -14 14 -17
163 -4 207 l9 30 7 -30 c4 -16 6 -64 5 -105z"/>
</g>
</svg>
