<?xml version="1.0" encoding="UTF-8"?>
<svg width="506px" height="206px" viewBox="0 0 506 206" version="1.1" xmlns="http://www.w3.org/2000/svg" xmlns:xlink="http://www.w3.org/1999/xlink">
    <!-- Generator: Sketch 52.6 (67491) - http://www.bohemiancoding.com/sketch -->
    <title>Group 6</title>
    <desc>Created with Sketch.</desc>
    <g id="Page-1" stroke="none" stroke-width="1" fill="none" fill-rule="evenodd">
        <g id="Desktop" transform="translate(-422.000000, -451.000000)" fill-rule="nonzero">
            <g id="Group-6" transform="translate(424.000000, 451.000000)">
                <g id="Group-5">
                    <path d="M136,201 C120.536027,201 108,188.240115 108,172.5 C108,156.759885 120.536027,144 136,144 C151.463973,144 164,156.759885 164,172.5 C164,188.240115 151.463973,201 136,201 Z M136,180 C140.418278,180 144,176.418278 144,172 C144,167.581722 140.418278,164 136,164 C131.581722,164 128,167.581722 128,172 C128,176.418278 131.581722,180 136,180 Z" id="Combined-Shape" fill="#D8D8D8"></path>
                    <path d="M318,201 C302.536027,201 290,188.240115 290,172.5 C290,156.759885 302.536027,144 318,144 C333.463973,144 346,156.759885 346,172.5 C346,188.240115 333.463973,201 318,201 Z M318,181 C322.418278,181 326,177.418278 326,173 C326,168.581722 322.418278,165 318,165 C313.581722,165 310,168.581722 310,173 C310,177.418278 313.581722,181 318,181 Z" id="Combined-Shape" fill="#D8D8D8"></path>
                    <path d="M281.553132,170.499988 C282.59273,150.976644 298.755774,135.5 318.5,135.5 C338.244226,135.5 354.40727,150.976644 355.446868,170.499988 L361,170.5 C364.589851,170.5 367.5,167.589851 367.5,164 L367.5,8 C367.5,4.41014913 364.589851,1.5 361,1.5 L121,1.5 C117.410149,1.5 114.5,4.41014913 114.5,8 L114.5,52.5 L103.794068,52.5 C101.85636,52.5 100.019688,53.3645081 98.7848605,54.8577975 L56.4310833,106.076649 C53.2437661,109.931104 51.5,114.776199 51.5,119.77778 L51.5,164.000006 C51.5,167.589857 54.4101491,170.500006 58,170.500006 L99.5531307,170.500006 C100.592727,150.976647 116.755772,135.5 136.5,135.5 C156.244226,135.5 172.40727,150.976644 173.446868,170.499988 L281.553131,170.5 Z" id="Combined-Shape" stroke="#5F7691" stroke-width="3" fill="#FFFFFF"></path>
                    <path d="M55,203.5 L402.25,203.5" id="Line" stroke="#5F7691" stroke-width="4" stroke-linecap="round"></path>
                    <path d="M411.5,203.5 L430,203.5" id="Line" stroke="#5F7691" stroke-width="4" stroke-linecap="round"></path>
                    <path d="M35,203.5 L44.5,203.5" id="Line" stroke="#5F7691" stroke-width="4" stroke-linecap="round"></path>
                    <path d="M0,203.5 L25.5,203.5" id="Line" stroke="#5F7691" stroke-width="4" stroke-linecap="round"></path>
                    <g id="Group-3" transform="translate(149.000000, 30.000000)">
                        <rect id="Rectangle" stroke="#5F7691" stroke-width="3" fill="#F3F8FA" x="9.5" y="6.5" width="137" height="82"></rect>
                        <g id="Group-2">
                            <g id="Group" transform="translate(0.000000, 1.000000)">
                                <path d="M0,0 L17,0 L17,26.5 C17,31.1944204 13.1944204,35 8.5,35 L8.5,35 C3.80557963,35 5.74900688e-16,31.1944204 0,26.5 L0,0 Z" id="Rectangle" fill="#F8DBA8"></path>
                                <path d="M17,0 L34,0 L34,26.5 C34,31.1944204 30.1944204,35 25.5,35 L25.5,35 C20.8055796,35 17,31.1944204 17,26.5 L17,0 Z" id="Rectangle" fill="#FFFFFF"></path>
                                <path d="M34,0 L51,0 L51,26.5 C51,31.1944204 47.1944204,35 42.5,35 L42.5,35 C37.8055796,35 34,31.1944204 34,26.5 L34,0 Z" id="Rectangle" fill="#F8DBA8"></path>
                                <path d="M51,0 L68,0 L68,26.5 C68,31.1944204 64.1944204,35 59.5,35 L59.5,35 C54.8055796,35 51,31.1944204 51,26.5 L51,0 Z" id="Rectangle" fill="#FFFFFF"></path>
                                <path d="M68,0 L85,0 L85,26.5 C85,31.1944204 81.1944204,35 76.5,35 L76.5,35 C71.8055796,35 68,31.1944204 68,26.5 L68,0 Z" id="Rectangle" fill="#F8DBA8"></path>
                                <path d="M85,0 L102,0 L102,26.5 C102,31.1944204 98.1944204,35 93.5,35 L93.5,35 C88.8055796,35 85,31.1944204 85,26.5 L85,0 Z" id="Rectangle" fill="#FFFFFF"></path>
                                <path d="M102,0 L119,0 L119,26.5 C119,31.1944204 115.19442,35 110.5,35 L110.5,35 C105.80558,35 102,31.1944204 102,26.5 L102,0 Z" id="Rectangle" fill="#F8DBA8"></path>
                                <path d="M119,0 L136,0 L136,26.5 C136,31.1944204 132.19442,35 127.5,35 L127.5,35 C122.80558,35 119,31.1944204 119,26.5 L119,0 Z" id="Rectangle" fill="#FFFFFF"></path>
                                <path d="M136,0 L153,0 L153,26.5 C153,31.1944204 149.19442,35 144.5,35 L144.5,35 C139.80558,35 136,31.1944204 136,26.5 L136,0 Z" id="Rectangle" fill="#F8DBA8"></path>
                            </g>
                        </g>
                    </g>
                    <path d="M53,125 L59.5,125 C64.7467051,125 69,129.253295 69,134.5 L69,134.5 C69,139.746705 64.7467051,144 59.5,144 L53,144 L53,125 Z" id="Rectangle" fill="#F8DBA8"></path>
                    <polygon id="Path-7" fill="#F3F8FA" points="102.060547 71 69 112.771484 69 119.937988 127.663086 119.937988 127.663086 71"></polygon>
                    <rect id="Rectangle" fill="#F5D5CD" x="310" y="53" width="41" height="53"></rect>
                    <path d="" id="Path-8" stroke="#979797"></path>
                    <path d="M174.361729,94 L176.768555,89 L178.280273,89 L180.698136,94 L183,94 L183,97 L182,97 L182,115 C182,116.104569 181.104569,117 180,117 L175,117 C173.895431,117 173,116.104569 173,115 L173,97 L172,97 L172,94 L174.361729,94 Z" id="Combined-Shape" fill="#F5D5CD"></path>
                    <path d="M186.361729,94 L188.768555,89 L190.280273,89 L192.698136,94 L195,94 L195,97 L194,97 L194,115 C194,116.104569 193.104569,117 192,117 L187,117 C185.895431,117 185,116.104569 185,115 L185,97 L184,97 L184,94 L186.361729,94 Z" id="Combined-Shape" fill="#F8DBA8"></path>
                    <g id="Group-4" transform="translate(383.000000, 71.000000)">
                        <path d="M7.10542736e-15,30.5908557 C6.33571115,25.6175626 11.8007813,19.8798289 28.3642578,20.9295851 C44.9277344,21.9793413 56.819951,31.2150387 64.4482422,34.0917969 C75.2158243,38.152435 103.634308,48.4035883 114.445239,31.4554625" id="Path-10" stroke="#D8D8D8" stroke-width="2" stroke-linecap="round"></path>
                        <path d="M116.47678,27.4023112 C117.213727,25.4966931 117.784939,23.3474372 118.164062,20.9295851 C119.79094,10.5542037 112.254219,2.98425149 103.062551,1.08606895" id="Path-10" stroke="#D8D8D8" stroke-width="2" stroke-linecap="round"></path>
                        <path d="M97.841525,0.63299001 C92.2766675,0.806278549 86.6212413,3.0867055 82.3623047,8.04193825 C74.6194517,17.050675 87.6179418,25.4175275 93.9433594,19.8798289" id="Path-10" stroke="#D8D8D8" stroke-width="2" stroke-linecap="round"></path>
                        <path d="M107.614955,54.2484347 C111.503103,53.4418501 114.959624,52.4947861 119.14644,47.1208883" id="Path-12" stroke="#D8D8D8" stroke-width="2" stroke-linecap="round" transform="translate(113.380697, 50.684661) rotate(-12.000000) translate(-113.380697, -50.684661) "></path>
                        <path d="M21,31.3327534 C25.7763672,28.123769 33.9023437,26.0492958 46.2265625,34.3132221 C58.5507813,42.5771484 81.0854492,66.4814453 104.038574,57.5341797" id="Path-11" stroke="#D8D8D8" stroke-width="2" stroke-linecap="round"></path>
                        <circle id="Oval" fill="#D8D8D8" cx="120" cy="41" r="1"></circle>
                    </g>
                </g>
                <path d="M149,31 L302,31" id="Line-3" stroke="#F6D295" stroke-width="2" stroke-linecap="round"></path>
            </g>
        </g>
    </g>
</svg>