<?xml version="1.0" encoding="UTF-8"?>
<svg width="468px" height="356px" viewBox="0 0 468 356" version="1.1" xmlns="http://www.w3.org/2000/svg" xmlns:xlink="http://www.w3.org/1999/xlink">
    <!-- Generator: Sketch 52.6 (67491) - http://www.bohemiancoding.com/sketch -->
    <title>Group 4</title>
    <desc>Created with Sketch.</desc>
    <defs>
        <rect id="path-1" x="0" y="0" width="253" height="253" rx="16"></rect>
    </defs>
    <g id="Page-1" stroke="none" stroke-width="1" fill="none" fill-rule="evenodd">
        <g id="Artboard" transform="translate(-152.000000, -115.000000)">
            <g id="Group-4" transform="translate(126.000000, 54.000000)">
                <path d="M229.245545,49.2058533 C316.039506,55.6180162 308.19019,147.745156 351.053472,208.620139 C382.824797,253.742185 490.530612,277.719003 486.782915,320.555375 C482.991203,363.894841 431.337276,416.014386 383.140001,426.590439 C321.373997,440.143913 185.909896,414.526337 123.449447,361.842311 C65.2200611,312.727097 30.670065,288.210384 41.8849088,182.747205 C53.0997525,77.2840263 142.451584,42.7936904 229.245545,49.2058533 Z" id="Path-3" fill="#FEF8EE" fill-rule="nonzero" transform="translate(263.329763, 239.319403) scale(-1, 1) rotate(-14.000000) translate(-263.329763, -239.319403) "></path>
                <g id="Path-4" transform="translate(138.000000, 109.000000)">
                    <mask id="mask-2" fill="white">
                        <use xlink:href="#path-1"></use>
                    </mask>
                    <use id="Mask" fill="#FFFFFF" fill-rule="nonzero" xlink:href="#path-1"></use>
                    <path d="M148.900281,22.3024783 C239.942299,30.4149789 291.306741,73.705236 277.081554,93.7695633 C262.856367,113.833891 212.617312,157.66192 133.520618,147.559781 C97.3646848,142.941986 41.9654832,142.735852 21.1667715,129.473973 C-3.53491427,113.723441 10.0222609,83.8639736 14.590907,66.7613273 C23.0063331,35.2583276 57.8582624,14.1899777 148.900281,22.3024783 Z" fill="#F3F8FA" fill-rule="nonzero" mask="url(#mask-2)" transform="translate(143.092376, 84.803635) rotate(-7.000000) translate(-143.092376, -84.803635) "></path>
                </g>
                <rect id="Rectangle" stroke="#5F7691" stroke-width="3" fill-rule="nonzero" x="139.5" y="110.5" width="250" height="250" rx="16"></rect>
                <circle id="Oval" fill="#75A5DC" fill-rule="nonzero" cx="198" cy="140" r="23"></circle>
                <rect id="Rectangle" stroke="#5F7691" stroke-width="3" fill="#F8DBA8" fill-rule="nonzero" x="182.5" y="79.5" width="31" height="73" rx="15.5"></rect>
                <circle id="Oval" fill="#75A5DC" fill-rule="nonzero" cx="331" cy="140" r="23"></circle>
                <rect id="Rectangle" stroke="#5F7691" stroke-width="3" fill="#F8DBA8" fill-rule="nonzero" x="315.5" y="79.5" width="31" height="73" rx="15.5"></rect>
                <g id="Group-2" transform="translate(156.000000, 253.000000)" fill="#EDFCE7" fill-rule="nonzero">
                    <rect id="Rectangle" x="27" y="0" width="182" height="18" rx="9"></rect>
                    <rect id="Rectangle" x="0" y="18" width="196" height="18" rx="9"></rect>
                    <path d="M179,36 C174.029437,36 170,40.0294373 170,45 C170,49.9705627 174.029437,54 179,54 L76,54 C71.0294373,54 67,49.9705627 67,45 C67,40.0294373 71.0294373,36 76,36 L179,36 Z" id="Combined-Shape"></path>
                    <path d="M60,71.7769836 C64.0079774,70.8675252 67,67.2831748 67,63 C67,58.7168252 64.0079774,55.1324748 60,54.2230164 C60.6432227,54.0770614 61.312612,54 62,54 L191,54 C195.970563,54 200,58.0294373 200,63 C200,67.9705627 195.970563,72 191,72 L62,72 C61.312612,72 60.6432227,71.9229386 60,71.7769836 Z" id="Combined-Shape"></path>
                    <rect id="Rectangle" x="33" y="72" width="147" height="18" rx="9"></rect>
                </g>
                <g id="Group" transform="translate(210.000000, 223.000000)" fill-rule="nonzero">
                    <path d="M122.038649,3 C160.92979,3 172.927734,27.8945312 172.927734,34.5078125 C172.927734,41.1210937 1,47.7089844 1,38.2304687 C1,28.7519531 24.0131779,18.3266602 38.2408093,18.3266602 C52.4684408,18.3266602 62.8538333,20.8401217 73.1674085,22.9845322 C79.3445201,22.9845322 83.1475067,3 122.038649,3 Z" id="Path-5" fill="#C0ECCF" transform="translate(86.963867, 22.984532) rotate(2.000000) translate(-86.963867, -22.984532) "></path>
                    <ellipse id="Oval" fill="#EDFCE7" transform="translate(143.297241, 17.268805) rotate(16.000000) translate(-143.297241, -17.268805) " cx="143.297241" cy="17.2688046" rx="3" ry="1.5"></ellipse>
                    <circle id="Oval" fill="#EDFCE7" cx="137.5" cy="19.5" r="1.5"></circle>
                    <circle id="Oval" fill="#EDFCE7" cx="144" cy="22" r="1"></circle>
                </g>
                <g id="Group-3" transform="translate(148.000000, 284.000000)" fill-rule="nonzero">
                    <path d="M54.72958,0 C90.9568693,0 117,20.8735492 117,24.0090357 C117,26.0209816 88.8804078,27.2901556 54.72958,27.9521326 C35.6585689,28.3218037 0.884233119,26.4429173 0.143232796,25.9991837 C-1.92469112,24.7608476 18.5022907,4.48208418e-15 54.72958,0 Z" id="Path-6" fill="#C0ECCF"></path>
                    <circle id="Oval" fill="#EDFCE7" cx="28.5" cy="9.5" r="1.5"></circle>
                    <circle id="Oval" fill="#EDFCE7" cx="30" cy="14" r="1"></circle>
                    <ellipse id="Oval" fill="#EDFCE7" transform="translate(34.911576, 10.498100) rotate(-28.000000) translate(-34.911576, -10.498100) " cx="34.9115763" cy="10.4981003" rx="2.5" ry="1.5"></ellipse>
                </g>
            </g>
        </g>
    </g>
</svg>