<?xml version="1.0" encoding="UTF-8"?>
<svg width="591px" height="401px" viewBox="0 0 591 401" version="1.1" xmlns="http://www.w3.org/2000/svg" xmlns:xlink="http://www.w3.org/1999/xlink">
    <!-- Generator: Sketch 52.6 (67491) - http://www.bohemiancoding.com/sketch -->
    <title>Group</title>
    <desc>Created with Sketch.</desc>
    <defs>
        <rect id="path-1" x="0" y="0" width="253" height="253" rx="16"></rect>
    </defs>
    <g id="Page-1" stroke="none" stroke-width="1" fill="none" fill-rule="evenodd">
        <g id="Artboard" transform="translate(-58.000000, -101.000000)">
            <g id="Group" transform="translate(44.000000, 60.000000)">
                <path d="M496.063642,219.809376 C581.639414,233.395313 614.823008,317.117969 601.451914,350.719532 C588.080821,384.321094 540.858164,457.719532 466.510508,440.801563 C392.162852,423.883594 346.811289,358.246876 354.721446,305.489063 C362.631602,252.731251 410.487869,206.223438 496.063642,219.809376 Z" id="Path-4" fill-opacity="0.7" fill="#F3F8FA" fill-rule="nonzero" transform="translate(479.072641, 330.359602) rotate(-7.000000) translate(-479.072641, -330.359602) "></path>
                <path d="M168.173825,36.0356179 C254.690602,37.2641887 336.302731,46.7945205 379.166012,107.669504 C422.029294,168.544487 472.363467,421.851707 351.093936,440.564622 C229.824405,459.277537 45.1222717,425.233037 56.3371155,319.769858 C67.5519592,214.30668 180.495859,247.252688 198.495859,202.022985 C216.495859,156.793282 38.7129414,159.605614 38.503045,112.533331 C38.2931485,65.461049 81.6570479,34.8070472 168.173825,36.0356179 Z" id="Path-3" fill-opacity="0.2" fill="#F8DBA8" fill-rule="nonzero" transform="translate(232.729262, 240.721603) rotate(-12.000000) translate(-232.729262, -240.721603) "></path>
                <g id="Path-4" transform="translate(220.000000, 103.000000)">
                    <mask id="mask-2" fill="white">
                        <use xlink:href="#path-1"></use>
                    </mask>
                    <use id="Mask" fill="#FFFFFF" fill-rule="nonzero" xlink:href="#path-1"></use>
                </g>
                <rect id="Rectangle" stroke="#5F7691" stroke-width="3" fill-rule="nonzero" x="221.5" y="104.5" width="250" height="250" rx="16"></rect>
                <circle id="Oval" fill="#75A5DC" fill-rule="nonzero" cx="280" cy="134" r="23"></circle>
                <rect id="Rectangle" stroke="#5F7691" stroke-width="3" fill="#F8DBA8" fill-rule="nonzero" x="264.5" y="73.5" width="31" height="73" rx="15.5"></rect>
                <circle id="Oval" fill="#75A5DC" fill-rule="nonzero" cx="413" cy="134" r="23"></circle>
                <rect id="Rectangle" stroke="#5F7691" stroke-width="3" fill="#F8DBA8" fill-rule="nonzero" x="397.5" y="73.5" width="31" height="73" rx="15.5"></rect>
                <rect id="Rectangle" fill-opacity="0.5" fill="#BFE0BB" fill-rule="nonzero" x="298" y="287" width="43" height="43"></rect>
                <rect id="Rectangle" fill-opacity="0.5" fill="#BFE0BB" fill-rule="nonzero" x="352" y="287" width="43" height="43"></rect>
                <rect id="Rectangle" fill-opacity="0.5" fill="#BFE0BB" fill-rule="nonzero" x="298" y="233" width="43" height="43"></rect>
                <rect id="Rectangle" fill-opacity="0.5" fill="#BFE0BB" fill-rule="nonzero" x="352" y="179" width="43" height="43"></rect>
                <rect id="Rectangle" fill-opacity="0.5" fill="#BFE0BB" fill-rule="nonzero" x="406" y="233" width="43" height="43"></rect>
                <rect id="Rectangle" fill-opacity="0.5" fill="#BFE0BB" fill-rule="nonzero" x="243" y="179" width="43" height="43"></rect>
                <rect id="Rectangle" fill-opacity="0.5" fill="#BFE0BB" fill-rule="nonzero" x="406" y="287" width="43" height="43"></rect>
            </g>
        </g>
    </g>
</svg>