<?xml version="1.0" encoding="UTF-8"?>
<svg width="500px" height="183px" viewBox="0 0 500 183" version="1.1" xmlns="http://www.w3.org/2000/svg" xmlns:xlink="http://www.w3.org/1999/xlink">
    <!-- Generator: Sketch 52.6 (67491) - http://www.bohemiancoding.com/sketch -->
    <title>Group 3</title>
    <desc>Created with Sketch.</desc>
    <g id="Page-1" stroke="none" stroke-width="1" fill="none" fill-rule="evenodd">
        <g id="Desktop" transform="translate(-234.000000, -438.000000)" fill-rule="nonzero">
            <g id="Group-3" transform="translate(235.000000, 438.000000)">
                <g id="Group" transform="translate(60.000000, 33.000000)">
                    <rect id="Rectangle" fill="#BFE0BB" x="28" y="0" width="34" height="107" rx="17"></rect>
                    <rect id="Rectangle" fill="#BFE0BB" x="11" y="31" width="29" height="93" rx="14.5"></rect>
                    <path d="M6.4570906,77 L57,77 C61.418278,77 65,80.581722 65,85 L65,140 C65,144.418278 61.418278,148 57,148 L20.1512958,148 C16.3506592,148 13.0746488,145.325965 12.3134076,141.602345 L0.57867445,84.2017585 C-0.085038465,80.9551989 2.00877247,77.7852968 5.25533206,77.1215839 C5.65080854,77.0407343 6.05343444,77 6.4570906,77 Z" id="Rectangle" fill="#EAF1F4"></path>
                </g>
                <g id="Group-2" transform="translate(118.000000, 0.000000)">
                    <rect id="Rectangle" stroke="#5F7691" stroke-width="3" fill="#FFFFFF" x="1.5" y="1.5" width="253" height="169" rx="8"></rect>
                    <path d="M216.84375,18 C216.84375,56.78125 209.389323,86.0449219 194.480469,105.791016 C179.571615,125.537109 142.744792,139.606771 84,148 L242,148 L242,18 L216.84375,18 Z" id="Path-2" stroke="#F3F8FA" fill="#F3F8FA"></path>
                    <rect id="Rectangle" stroke="#5F7691" stroke-width="3" x="15.5" y="16.5" width="226" height="131"></rect>
                </g>
                <path d="M99.5,162.5 L99.5,170 C99.5,175.79899 104.20101,180.5 110,180.5 L381,180.5 C386.79899,180.5 391.5,175.79899 391.5,170 L391.5,162.5 L99.5,162.5 Z" id="Rectangle" stroke="#5F7691" stroke-width="3" fill="#FFFFFF"></path>
                <path d="M439,103 L352,103 L352,141.5 C352,161.658393 368.341607,178 388.5,178 L402.5,178 C420.301609,178 435.423486,165.167337 438.453623,147.827855 L438.598294,147 L454,147 C462.836556,147 470,139.836556 470,131 C470,122.163444 462.836556,115 454,115 L439,115 L439,103 Z M439,125 L453,125 C456.313708,125 459,127.686292 459,131 C459,134.313708 456.313708,137 453,137 L439,137 L439,125 Z" id="Combined-Shape" stroke="#F6D295" stroke-width="2" fill="#F8DBA8"></path>
                <path d="M48,180.5 L460,180.5" id="Line" stroke="#5F7691" stroke-width="4" stroke-linecap="round"></path>
                <path d="M469.5,180.5 L496.5,180.5" id="Line" stroke="#5F7691" stroke-width="4" stroke-linecap="round"></path>
                <path d="M19,180.5 L39.5,180.5" id="Line" stroke="#5F7691" stroke-width="4" stroke-linecap="round"></path>
                <path d="M1,180.5 L10.5,180.5" id="Line" stroke="#5F7691" stroke-width="4" stroke-linecap="round"></path>
                <path d="M393.753992,93.3833008 C400.748794,85.3503705 405.159602,80.670032 406.986414,79.3422852 C412.945398,75.0112305 421.38608,67.7729169 422.246667,61.3457031 C423.903391,48.9726177 419.070886,35 402.16073,35 C390.887292,35 385.511967,40.7045898 386.034753,52.1137695 C387.731042,59.1984049 391.647058,62.7407227 397.7828,62.7407227 C403.918542,62.7407227 406.64071,59.1984049 405.949304,52.1137695 C404.907637,55.0239258 402.18547,56.4790039 397.7828,56.4790039 C391.178796,56.4790039 392.752527,43.3261719 401.151941,43.3261719 C409.551355,43.3261719 413.443933,50.0571289 412.61532,60.2207031 C412.205237,65.250676 402.70881,73.7992791 398.856531,79.3422852 C397.02934,81.971411 395.328494,86.6517495 393.753992,93.3833008 Z" id="Path" fill="#F3F3F3"></path>
            </g>
        </g>
    </g>
</svg>