<svg xmlns="http://www.w3.org/2000/svg" viewBox="0 0 152.31 138.13"><defs><style>.cls-1{fill:#1f2049;}.cls-2{fill:#4954f4;}.cls-3{fill:#ef4c5f;}</style></defs><title>clubs-logo</title><g id="Layer_2" data-name="Layer 2"><g id="Layer_1-2" data-name="Layer 1"><circle class="cls-1" cx="26.37" cy="32.25" r="19.69"/><circle class="cls-2" cx="125.93" cy="32.25" r="19.69"/><path class="cls-3" d="M95.85,45.21a31.67,31.67,0,0,1-39.39,0c-6.63,3.92-11,10.39-11,17.68V128c0,5.58,5.43,10.14,12.07,10.14H94.77c6.64,0,12.07-4.56,12.07-10.14V62.9C106.84,55.61,102.48,49.13,95.85,45.21Z"/><circle class="cls-3" cx="76.15" cy="22.91" r="22.91"/><path class="cls-2" d="M142.86,51.42a26.93,26.93,0,0,1-33.86,0l-.5.31a17.3,17.3,0,0,1,4.17,11v66a7.69,7.69,0,0,1-1,3.66h30.21c5.71,0,10.38-4,10.38-8.83V66.83C152.31,60.48,148.56,54.84,142.86,51.42Z"/><path class="cls-1" d="M39.63,128.73v-66a17.3,17.3,0,0,1,4.17-11l-.5-.31a26.53,26.53,0,0,1-16.93,6,26.53,26.53,0,0,1-16.93-6C3.74,54.84,0,60.48,0,66.83v56.73c0,4.86,4.67,8.83,10.38,8.83H40.59A7.69,7.69,0,0,1,39.63,128.73Z"/></g></g></svg>