<svg xmlns="http://www.w3.org/2000/svg" xmlns:xlink="http://www.w3.org/1999/xlink" viewBox="0 0 345.71 478.68"><defs><style>.cls-1{fill:none;}.cls-2{fill:#78c8ef;}.cls-3{fill:#1e88e5;}.cls-4{fill:#42a5f5;}.cls-5{clip-path:url(#clip-path);}.cls-6{fill:#a5e2f9;opacity:0.26;}.cls-7{fill:#fff;}</style><clipPath id="clip-path"><path class="cls-1" d="M308.86,331.37h-.26l-.94-123c-.47-61.74-42.52-113.82-99.2-130a38.19,38.19,0,0,0-76.18.59c-56.43,17-97.67,69.75-97.2,131.49l.94,123a36.56,36.56,0,0,0,.82,73.11l89.75-.69h0a46.54,46.54,0,1,0,93.07-.71l89.75-.69a36.67,36.67,0,0,0,36.28-36.85h0A36.67,36.67,0,0,0,308.86,331.37Z"/></clipPath></defs><title>pca-logo</title><g id="Layer_2" data-name="Layer 2"><g id="Layer_1-2" data-name="Layer 1"><circle class="cls-2" cx="170.39" cy="81.45" r="38.23" transform="translate(-0.62 1.31) rotate(-0.44)"/><circle class="cls-3" cx="173.13" cy="405.55" r="46.54" transform="translate(-3.11 1.34) rotate(-0.44)"/><path class="cls-4" d="M308.86,331.37h-.26l-.94-123c-.58-75-62.38-135.82-137.33-135.24h0c-75,.58-135.82,62.38-135.24,137.33l.94,123a36.56,36.56,0,0,0,.82,73.11l272.58-2.09a36.67,36.67,0,0,0,36.28-36.85h0A36.67,36.67,0,0,0,308.86,331.37Z"/><g class="cls-5"><rect class="cls-6" x="0.6" width="172.86" height="478.68"/></g><path class="cls-7" d="M119.17,159.56h58.11a116.55,116.55,0,0,1,24,2.44,59.32,59.32,0,0,1,20.39,8.18,42,42,0,0,1,14,15.38q5.25,9.65,5.25,24.05Q241,226,235.39,236a40.18,40.18,0,0,1-15.14,15.5,63.24,63.24,0,0,1-22.1,7.45,170.64,170.64,0,0,1-26.25,2h-22v71.54H119.17Zm49.32,75q6.59,0,13.67-.49a42,42,0,0,0,13.06-2.93,23.18,23.18,0,0,0,9.77-7.32q3.78-4.88,3.79-13.67,0-8.06-3.42-12.82a22.65,22.65,0,0,0-8.79-7.32,37.09,37.09,0,0,0-12-3.3,115,115,0,0,0-12.7-.73h-22v48.59Z"/></g></g></svg>