<svg xmlns="http://www.w3.org/2000/svg" viewBox="0 0 918.12 995.3"><defs><style>.cls-1{fill:#454f99;}.cls-2{fill:#878ed8;}.cls-3{fill:#6973c4;}.cls-4{fill:#cccce2;}.cls-5{fill:#a7a7d3;}.cls-6{fill:#fff;}.cls-7{fill:#9eaadd;}</style></defs><title>pcp-logo</title><g id="Layer_2" data-name="Layer 2"><g id="Layer_1-2" data-name="Layer 1"><rect class="cls-1" y="210.3" width="918.12" height="785" rx="150.45" ry="150.45"/><rect class="cls-2" y="74.46" width="918.12" height="839.11" rx="159.45" ry="159.45"/><circle class="cls-3" cx="262.32" cy="187.09" r="74.46"/><circle class="cls-3" cx="655.8" cy="187.09" r="74.46"/><rect class="cls-4" x="214.04" width="96.58" height="237.65" rx="48.29" ry="48.29"/><rect class="cls-4" x="607.51" width="96.58" height="237.65" rx="48.29" ry="48.29"/><path class="cls-5" d="M918.12,701.52"/><path class="cls-5" d="M726.76,913.57"/><path class="cls-6" d="M332.72,357.3H477.1a289.6,289.6,0,0,1,59.75,6.07q28.81,6.07,50.66,20.32A104.38,104.38,0,0,1,622.4,421.9q13,24,13,59.76,0,40.65-14,65.52a99.84,99.84,0,0,1-37.61,38.52q-23.66,13.65-54.9,18.51a424,424,0,0,1-65.22,4.85h-54.6V786.81H332.72ZM455.26,543.54q16.38,0,34-1.21A104.24,104.24,0,0,0,521.69,535,57.59,57.59,0,0,0,546,516.85q9.4-12.13,9.4-34,0-20-8.49-31.85A56.29,56.29,0,0,0,525,432.83a92.17,92.17,0,0,0-29.73-8.19,285.69,285.69,0,0,0-31.55-1.82h-54.6V543.54Z"/><path class="cls-7" d="M655.8,913.57V780.13c0-57.61,41.1-104.31,91.81-104.31H918.12v95.62A142.13,142.13,0,0,1,776,913.57Z"/><path class="cls-4" d="M918.12,675.81H747.61c-50.7,0-91.81,46.7-91.81,104.31V913.57"/><path class="cls-5" d="M918.12,701.52"/></g></g></svg>