<svg xmlns="http://www.w3.org/2000/svg" viewBox="0 0 401.19 393"><defs><style>.cls-1{fill:#5a9093;}.cls-2{fill:#85b8ba;}.cls-3{fill:#fff;}.cls-4{fill:#cfd1d1;}</style></defs><title>pcr-logo</title><g id="Layer_2" data-name="Layer 2"><g id="Layer_1-2" data-name="Layer 1"><rect class="cls-1" x="30.43" y="26.96" width="370.76" height="366.04" rx="63.2" ry="63.2"/><rect class="cls-2" x="30.43" width="370.76" height="359.18" rx="63.2" ry="63.2"/><circle class="cls-1" cx="77.19" cy="85.8" r="32.75"/><path class="cls-3" d="M171.85,75.78h68.81a138,138,0,0,1,28.48,2.89,70.24,70.24,0,0,1,24.14,9.68,49.74,49.74,0,0,1,16.62,18.21Q316.11,118,316.11,135q0,19.37-6.65,31.22a47.58,47.58,0,0,1-17.93,18.36,74.88,74.88,0,0,1-26.16,8.82,202.06,202.06,0,0,1-31.08,2.31h-26v84.71H171.85Zm58.4,88.76q7.81,0,16.19-.58a49.68,49.68,0,0,0,15.47-3.47,27.44,27.44,0,0,0,11.56-8.67q4.48-5.78,4.48-16.19,0-9.54-4-15.18a26.83,26.83,0,0,0-10.41-8.67,43.92,43.92,0,0,0-14.17-3.9,136.15,136.15,0,0,0-15-.87h-26v57.53Z"/><circle class="cls-1" cx="77.19" cy="175.86" r="32.75"/><rect class="cls-4" y="155.39" width="98.47" height="40.94" rx="19.75" ry="19.75"/><circle class="cls-1" cx="77.19" cy="274.11" r="32.75"/><rect class="cls-4" y="253.64" width="98.47" height="40.94" rx="19.75" ry="19.75"/><rect class="cls-4" y="65.33" width="98.47" height="40.94" rx="19.75" ry="19.75"/></g></g></svg>